<?xml version="1.0" encoding="utf-8"?>
<!-- Generator: Adobe Illustrator 19.0.0, SVG Export Plug-In . SVG Version: 6.00 Build 0)  -->
<svg version="1.1" id="Calque_1" xmlns="http://www.w3.org/2000/svg" xmlns:xlink="http://www.w3.org/1999/xlink" x="0px" y="0px"
	 viewBox="0 0 186.3 69.2" style="enable-background:new 0 0 186.3 69.2;" xml:space="preserve">
<style type="text/css">
	.st0{stroke:#000000;stroke-width:2;stroke-miterlimit:10;}
	.st1{fill:#009640;}
	.st2{fill:#312783;}
	.st3{fill:#FFED00;}
	.st4{fill:#E30613;}
</style>
<path id="XMLID_247_" class="st0" d="M34,25.9c-1.9-1.4-4.4-2.1-7.4-2.1c-1.2,0-2.4,0.1-3.6,0.4c-1.2,0.2-2.2,0.6-3.1,1.2
	c-0.9,0.6-1.6,1.3-2.2,2.3c-0.5,1-0.8,2.1-0.8,3.6c0,1.3,0.4,2.4,1.2,3.3c0.8,0.8,1.8,1.5,3.2,2c1.3,0.5,2.8,1,4.5,1.3
	c1.7,0.3,3.4,0.7,5.1,1.1c1.7,0.4,3.4,0.9,5.1,1.4c1.7,0.5,3.2,1.3,4.5,2.2c1.3,0.9,2.4,2.1,3.2,3.5c0.8,1.4,1.2,3.2,1.2,5.4
	c0,2.3-0.5,4.3-1.6,5.9c-1,1.6-2.4,3-4,4c-1.6,1-3.4,1.8-5.4,2.3c-2,0.5-4,0.7-6,0.7c-2.4,0-4.7-0.3-6.9-0.9
	c-2.2-0.6-4.1-1.5-5.7-2.8c-1.6-1.2-2.9-2.8-3.9-4.7c-1-1.9-1.4-4.2-1.4-6.8h5.5c0,1.8,0.4,3.4,1.1,4.7c0.7,1.3,1.6,2.4,2.8,3.3
	c1.2,0.9,2.5,1.5,4,1.9c1.5,0.4,3.1,0.6,4.7,0.6c1.3,0,2.6-0.1,3.9-0.4c1.3-0.2,2.5-0.7,3.6-1.2c1.1-0.6,1.9-1.4,2.6-2.4
	c0.6-1,1-2.3,1-3.9c0-1.5-0.4-2.7-1.2-3.7c-0.8-0.9-1.8-1.7-3.2-2.3c-1.3-0.6-2.8-1.1-4.5-1.4c-1.7-0.4-3.4-0.7-5.1-1.1
	c-1.7-0.4-3.4-0.8-5.1-1.3c-1.7-0.5-3.2-1.2-4.5-2c-1.3-0.8-2.4-1.9-3.2-3.2s-1.2-3-1.2-5c0-2.2,0.4-4.1,1.3-5.7
	c0.9-1.6,2.1-2.9,3.6-4c1.5-1,3.2-1.8,5.1-2.3c1.9-0.5,3.8-0.8,5.8-0.8c2.2,0,4.3,0.3,6.2,0.8c1.9,0.5,3.6,1.4,5,2.5
	c1.4,1.1,2.6,2.6,3.4,4.3c0.8,1.7,1.3,3.8,1.4,6.2h-5.5C37.1,29.6,35.9,27.3,34,25.9z"/>
<path id="XMLID_245_" d="M58.8,4v60.2h-7.3V4H58.8z"/>
<path id="XMLID_243_" d="M122.9,20v6.5h0.2c3.3-5,8.1-7.5,14.3-7.5c2.7,0,5.2,0.6,7.4,1.7c2.2,1.1,3.8,3.1,4.7,5.8
	c1.5-2.4,3.4-4.2,5.9-5.6c2.4-1.3,5.1-2,8-2c2.2,0,4.2,0.2,6,0.7c1.8,0.5,3.3,1.2,4.6,2.3c1.3,1,2.3,2.3,3,4
	c0.7,1.6,1.1,3.6,1.1,5.9v32.4h-7.3v-29c0-1.4-0.1-2.6-0.3-3.8c-0.2-1.2-0.7-2.2-1.3-3.1c-0.6-0.9-1.5-1.6-2.6-2.1
	c-1.1-0.5-2.5-0.8-4.3-0.8c-3.6,0-6.4,1-8.5,3.1c-2.1,2.1-3.1,4.8-3.1,8.2v27.5h-7.3v-29c0-1.4-0.1-2.7-0.4-3.9
	c-0.3-1.2-0.7-2.2-1.3-3.1c-0.6-0.9-1.5-1.6-2.5-2.1c-1.1-0.5-2.4-0.7-4.1-0.7c-2.1,0-3.9,0.4-5.4,1.3c-1.5,0.9-2.7,1.9-3.7,3.1
	s-1.6,2.4-2.1,3.7c-0.4,1.3-0.6,2.4-0.6,3.2v27.5h-7.3V20H122.9z"/>
<path id="XMLID_239_" class="st1" d="M90.6,64H64.7v-7.3h25.9V64z"/>
<path id="XMLID_237_" class="st2" d="M90.6,37.7H64.7v-7.3h25.9V37.7z"/>
<path id="XMLID_235_" class="st3" d="M90.6,24.5H64.7v-7.3h25.9V24.5z"/>
<path id="XMLID_217_" class="st4" d="M90.6,50.8H64.7v-7.3h25.9V50.8z"/>
<rect id="XMLID_216_" x="97.6" y="4" width="7.3" height="7.3"/>
<rect id="XMLID_215_" x="97.6" y="17.2" width="7.3" height="47"/>
</svg>
